<svg xmlns="http://www.w3.org/2000/svg" width="1024px" height="1024px" viewBox="0 0 1024 1024">
  <path
    d="M 256 128 C 185.6875 128 128 185.6875 128 256 L 128 768 C 128 838.3125 185.6875 896 256 896 L 768 896 C 838.3125 896 896 838.3125 896 768 L 896 256 C 896 185.6875 838.3125 128 768 128 Z M 256 192 L 768 192 C 803.726562 192 832 220.273438 832 256 L 832 768 C 832 803.726562 803.726562 832 768 832 L 256 832 C 220.273438 832 192 803.726562 192 768 L 192 256 C 192 220.273438 220.273438 192 256 192 Z M 256 192 " />
</svg>