<svg xmlns="http://www.w3.org/2000/svg" width="1024px" height="1024px" viewBox="0 0 1024 1024">
  <path
    d="M 755.25 64 C 772.921875 64 787.25 78.328125 787.25 96 L 787.25 320 L 563.25 320 C 545.578125 320 531.25 305.671875 531.25 288 C 531.25 270.328125 545.578125 256 563.25 256 L 676.53125 256 C 618.425781 196.722656 537.5 160 448 160 C 271.269531 160 128 303.269531 128 480 C 128 656.730469 271.269531 800 448 800 L 448 864 C 235.921875 864 64 692.078125 64 480 C 64 267.921875 235.921875 96 448 96 C 555.964844 96 653.515625 140.574219 723.25 212.246094 L 723.25 96 C 723.25 78.328125 737.574219 64 755.25 64 Z M 755.25 64 "/>
  <path
    d="M 11,9 C 9.901352,9 9,9.901352 9,11 v 2 c 0,1.098648 0.901352,2 2,2 h 2 c 1.098648,0 2,-0.901352 2,-2 V 11 C 15,9.901352 14.098648,9 13,9 Z m 0,1 h 2 c 0.558212,0 1,0.441788 1,1 v 2 c 0,0.558212 -0.441788,1 -1,1 h -2 c -0.558212,0 -1,-0.441788 -1,-1 v -2 c 0,-0.558212 0.441788,-1 1,-1 z"
    transform="matrix(64,0,0,64,0,0)" />
</svg>