<svg xmlns="http://www.w3.org/2000/svg" width="1024px" height="1024px" viewBox="0 0 1024 1024">
  <path
    d="M 256 128 C 221.097656 128 192 157.097656 192 192 L 192 832 C 192 866.902344 221.097656 896 256 896 L 384 896 C 418.902344 896 448 866.902344 448 832 L 448 192 C 448 157.097656 418.902344 128 384 128 Z M 256 192 L 384 192 L 384 832 L 256 832 Z M 256 192 " />
  <path
    d="M 640 128 C 605.097656 128 576 157.097656 576 192 L 576 832 C 576 866.902344 605.097656 896 640 896 L 768 896 C 802.902344 896 832 866.902344 832 832 L 832 192 C 832 157.097656 802.902344 128 768 128 Z M 640 192 L 768 192 L 768 832 L 640 832 Z M 640 192 " />
</svg>