<svg xmlns="http://www.w3.org/2000/svg" width="1024px" height="1024px" viewBox="0 0 1024 1024">
  <path
    d="M 128 128 C 93.097656 128 64 157.097656 64 192 L 64 832 C 64 866.902344 93.097656 896 128 896 L 256 896 C 290.902344 896 320 866.902344 320 832 L 320 192 C 320 157.097656 290.902344 128 256 128 Z M 128 192 L 256 192 L 256 832 L 128 832 Z M 128 192 " />
  <path
    d="M 556.75 130.5 C 503.585938 124.839844 448.25 165.078125 448.25 225 L 448.25 801 C 448.25 880.894531 546.589844 925.785156 607 873.5 L 939.75 585.625 C 983.546875 547.722656 983.546875 478.277344 939.75 440.375 L 607 152.5 C 591.898438 139.429688 574.472656 132.386719 556.75 130.5 Z M 530.25 194.5 C 540.671875 189.734375 553.878906 191.140625 565.125 200.875 L 897.875 488.75 C 913.0625 501.894531 913.0625 523.984375 897.875 537.125 L 565.125 825.125 C 542.628906 844.597656 512.25 830.75 512.25 801 L 512.25 225 C 512.25 210.125 519.828125 199.265625 530.25 194.5 Z M 530.25 194.5 " />
</svg>