<svg xmlns="http://www.w3.org/2000/svg" width="1024px" height="1024px" viewBox="0 0 1024 1024">
  <path
    d="M 182.855469 365.714844 C 283.847656 365.714844 365.714844 283.847656 365.714844 182.855469 C 365.714844 81.867188 283.847656 0 182.855469 0 C 81.867188 0 0 81.867188 0 182.855469 C 0 283.847656 81.867188 365.714844 182.855469 365.714844 Z M 182.855469 365.714844 " />
  <path
    d="M 378.386719 17.609375 C 402.683594 46.328125 420.765625 80.46875 430.558594 117.960938 C 456.859375 112.554688 484.097656 109.714844 512 109.714844 C 734.179688 109.714844 914.285156 289.824219 914.285156 512 C 914.285156 734.179688 734.179688 914.285156 512 914.285156 C 289.824219 914.285156 109.714844 734.179688 109.714844 512 C 109.714844 484.097656 112.554688 456.859375 117.960938 430.558594 C 80.46875 420.765625 46.328125 402.683594 17.609375 378.386719 C 6.125 420.984375 0 465.777344 0 512 C 0 794.769531 229.230469 1024 512 1024 C 794.769531 1024 1024 794.769531 1024 512 C 1024 229.230469 794.769531 0 512 0 C 465.777344 0 420.984375 6.125 378.386719 17.609375 Z M 378.386719 17.609375 " />
</svg>