<svg xmlns="http://www.w3.org/2000/svg" width="1024px" height="1024px" viewBox="0 0 1024 1024">
    <path
       d="M 896 96 C 896 78.328125 881.671875 64 864 64 C 846.328125 64 832 78.328125 832 96 L 832 299.671875 C 763.238281 196.242188 645.613281 128 512 128 C 299.921875 128 128 299.921875 128 512 C 128 724.078125 299.921875 896 512 896 C 514.6875 896 517.371094 895.972656 520.042969 895.917969 C 514.792969 875.488281 512 854.066406 512 832 C 335.269531 832 192 688.730469 192 512 C 192 335.269531 335.269531 192 512 192 C 616.65625 192 709.621094 242.238281 768.03125 320 L 608 320 C 590.328125 320 576 334.328125 576 352 C 576 369.671875 590.328125 384 608 384 L 896 384 Z M 896 96 "/>
    <path
       d="m 895.22266,641.02344 c 0,5.42187 -0.33984,10.76562 -0.9922,16.00781 8.91016,7.86328 17.08985,16.54297 24.40235,25.92578 l 54.83594,-36.55859 c 14.71485,-9.80469 34.57815,-5.83203 44.38285,8.87891 9.8008,14.69921 5.832,34.5664 -8.8828,44.37109 l -59.80864,39.87891 c 6.52344,19.30859 10.0625,39.98437 10.0625,61.49609 v 32 c 0,31.125 -7.40625,60.51953 -20.55078,86.50781 l 70.29692,46.86719 c 14.7148,9.80078 18.6836,29.67187 8.8828,44.37106 -9.8047,14.707 -29.668,18.6836 -44.38285,8.8789 l -72.82422,-48.55855 c -34.54687,33.39055 -81.58984,53.93355 -133.42187,53.93355 -51.83204,0 -98.875,-20.543 -133.42188,-53.93355 l -72.82812,48.55855 c -14.70313,9.8047 -34.57031,5.8281 -44.375,-8.8789 -9.79688,-14.69919 -5.82813,-34.57028 8.875,-44.37106 l 70.29687,-46.86719 c -13.14062,-25.98828 -20.54687,-55.38281 -20.54687,-86.50781 v -32 c 0,-21.51172 3.53905,-42.1875 10.0625,-61.49609 l -59.8125,-39.87891 c -14.70313,-9.80469 -18.67188,-29.67188 -8.875,-44.37109 9.80469,-14.71094 29.67187,-18.6836 44.375,-8.87891 l 54.83594,36.55859 c 7.32031,-9.38281 15.5,-18.0625 24.40625,-25.92578 -0.66016,-5.24219 -0.99219,-10.58594 -0.99219,-16.00781 0,-70.69141 57.30469,-128 128,-128 70.69531,0 128,57.30859 128,128 z M 664.29297,909.1211 c 0.33594,0.44531 0.67188,0.90234 1.00781,1.34765 23.38282,30.72266 60.33594,50.55469 101.92188,50.55469 41.66405,0 78.66796,-19.90234 102.04687,-50.71875 0.25782,-0.34766 0.51172,-0.6875 0.77734,-1.02344 15.82032,-21.30078 25.17579,-47.6875 25.17579,-76.25781 v -32 c 0,-70.69531 -57.3047,-128 -128,-128 -70.69532,0 -128,57.30469 -128,128 v 32 c 0,28.5 9.3203,54.82422 25.07031,76.09766 z M 824.68334,618.56641 c 9.09765,-24.26953 -30.13009,-41.87544 -57.46068,-41.54297 -27.63534,0.33617 -69.05469,17.27344 -59.95703,41.54297 19.43116,-7.76981 35.3262,-9.10834 59.95703,-9.54297 21.03506,-0.37118 38.20493,2.5719 57.46068,9.54297 z"/>
</svg>
