<svg xmlns="http://www.w3.org/2000/svg" width="1024px" height="1024px" viewBox="0 0 1024 1024">
  <path
    d="M 576 608.136719 C 576 532.761719 658.886719 486.789062 722.828125 526.699219 L 978.957031 686.558594 C 1039.179688 724.152344 1039.179688 811.847656 978.957031 849.441406 L 722.828125 1009.300781 C 658.886719 1049.210938 576 1003.238281 576 927.859375 Z M 688.941406 580.992188 C 667.628906 567.6875 640 583.011719 640 608.136719 L 640 927.859375 C 640 952.984375 667.628906 968.308594 688.941406 955.007812 L 945.070312 795.140625 C 965.144531 782.617188 965.144531 753.382812 945.070312 740.851562 Z M 688.941406 580.992188 " />
  <path
    d="M 896 192.160156 L 512 29.25 L 128 192.160156 L 128 561.789062 C 128 674.804688 185.117188 757.453125 258.074219 822.835938 C 311.734375 870.925781 377.074219 912.167969 437.03125 950.007812 C 456.945312 962.574219 476.273438 974.769531 494.375 986.71875 L 512 998.347656 L 512 921.804688 C 497.210938 912.25 482.273438 902.816406 467.363281 893.402344 C 408.621094 856.3125 350.074219 819.347656 300.785156 775.175781 C 235.453125 716.628906 192 649.945312 192 561.789062 L 192 234.527344 L 512 98.769531 L 832 234.527344 L 832 519.511719 L 896 559.457031 Z M 896 192.160156 " />
</svg>