<svg xmlns="http://www.w3.org/2000/svg" width="1024px" height="1024px" viewBox="0 0 1024 1024">
  <path
    d="M 160 896 L 864 896 C 881.671875 896 896 910.328125 896 928 C 896 945.671875 881.671875 960 864 960 L 160 960 C 142.328125 960 128 945.671875 128 928 C 128 910.328125 142.328125 896 160 896 Z M 160 896 " />
  <path
    d="M 894.867188 270.507812 C 894.808594 252.835938 880.433594 238.554688 862.765625 238.613281 C 845.09375 238.671875 830.808594 253.046875 830.867188 270.71875 L 831.726562 531.769531 L 501.496094 232.300781 L 478.917969 211.828125 L 457.371094 233.378906 L 137.371094 553.378906 C 124.875 565.875 124.875 586.136719 137.371094 598.632812 C 149.867188 611.128906 170.128906 611.128906 182.625 598.632812 L 481.078125 300.183594 L 783.46875 574.40625 L 528.339844 575.242188 C 510.667969 575.300781 496.386719 589.675781 496.445312 607.347656 C 496.503906 625.019531 510.878906 639.300781 528.550781 639.242188 L 864.078125 638.140625 L 896.078125 638.035156 L 895.972656 606.035156 Z M 894.867188 270.507812 " />
</svg>