<svg xmlns="http://www.w3.org/2000/svg" width="1024px" height="1024px" viewBox="0 0 1024 1024">
  <path
    d="M 160 896 L 864 896 C 881.671875 896 896 910.328125 896 928 C 896 945.671875 881.671875 960 864 960 L 160 960 C 142.328125 960 128 945.671875 128 928 C 128 910.328125 142.328125 896 160 896 Z M 160 896 " />
  <path
    d="M 790.628906 374.625 C 803.125 387.125 803.125 407.382812 790.628906 419.882812 C 778.132812 432.378906 757.867188 432.378906 745.371094 419.882812 L 544 218.507812 L 544 736.453125 C 544 754.125 529.671875 768.453125 512 768.453125 C 494.328125 768.453125 480 754.125 480 736.453125 L 480 218.507812 L 278.628906 419.882812 C 266.128906 432.378906 245.871094 432.378906 233.371094 419.882812 C 220.875 407.382812 220.875 387.125 233.371094 374.625 L 489.371094 118.625 L 512 96 L 534.628906 118.625 Z M 790.628906 374.625 " />
</svg>