<svg xmlns="http://www.w3.org/2000/svg" width="1024px" height="1024px" viewBox="0 0 1024 1024">
  <path
    d="M 1011.347656 12.855469 C 1028.484375 29.992188 1028.484375 57.777344 1011.347656 74.917969 L 733.628906 352.632812 C 716.492188 369.769531 688.707031 369.769531 671.570312 352.632812 L 524.855469 205.917969 C 507.714844 188.78125 507.714844 160.992188 524.855469 143.855469 C 541.992188 126.714844 569.777344 126.714844 586.917969 143.855469 L 702.601562 259.535156 L 949.285156 12.855469 C 966.421875 -4.285156 994.207031 -4.285156 1011.347656 12.855469 Z M 1011.347656 12.855469 " />
  <path
    d="M 473.382812 92.25 C 427.683594 137.953125 427.683594 212.050781 473.382812 257.753906 L 620.097656 404.46875 C 665.800781 450.171875 739.898438 450.171875 785.597656 404.46875 L 947.46875 242.597656 C 995.984375 320.851562 1024 413.15625 1024 512 C 1024 794.769531 794.769531 1024 512 1024 C 229.230469 1024 0 794.769531 0 512 C 0 229.230469 229.230469 0 512 0 C 611.140625 0 703.695312 28.175781 782.101562 76.960938 L 702.851562 156.210938 L 638.886719 92.25 C 593.183594 46.546875 519.085938 46.546875 473.382812 92.25 Z M 473.382812 92.25 " />
</svg>