<svg xmlns="http://www.w3.org/2000/svg" width="1024px" height="1024px" viewBox="0 0 1024 1024">
  <path
    d="M 160 896 L 864 896 C 881.671875 896 896 910.328125 896 928 C 896 945.671875 881.671875 960 864 960 L 160 960 C 142.328125 960 128 945.671875 128 928 C 128 910.328125 142.328125 896 160 896 Z M 160 896 " />
  <path
    d="M 790.628906 489.828125 C 803.125 477.328125 803.125 457.070312 790.628906 444.570312 C 778.132812 432.074219 757.867188 432.074219 745.371094 444.570312 L 544 645.945312 L 544 128 C 544 110.328125 529.671875 96 512 96 C 494.328125 96 480 110.328125 480 128 L 480 645.945312 L 278.628906 444.570312 C 266.128906 432.074219 245.871094 432.074219 233.371094 444.570312 C 220.875 457.070312 220.875 477.328125 233.371094 489.828125 L 489.371094 745.824219 L 512 768.453125 L 534.628906 745.824219 Z M 790.628906 489.828125 " />
</svg>