<svg xmlns="http://www.w3.org/2000/svg" width="1024px" height="1024px" viewBox="0 0 1024 1024">
  <path
    d="M 256 128 C 185.640625 128 128 185.640625 128 256 L 128 768 C 128 838.359375 185.640625 896 256 896 L 768 896 C 838.359375 896 896 838.359375 896 768 L 896 256 C 896 185.640625 838.359375 128 768 128 Z M 256 192 L 768 192 C 804.007812 192 832 219.992188 832 256 L 832 768 C 832 804.007812 804.007812 832 768 832 L 256 832 C 219.992188 832 192 804.007812 192 768 L 192 256 C 192 219.992188 219.992188 192 256 192 Z M 256 192 " />
  <path
    d="M 520.660156 736 C 615.953125 736 697.632812 678.453125 717.746094 596.773438 L 652.773438 596.773438 C 632.660156 643.496094 582.851562 676.910156 520.660156 676.910156 C 434.960938 676.910156 373.082031 608.222656 373.082031 512 C 373.082031 415.777344 434.960938 347.09375 520.660156 347.09375 C 582.851562 347.09375 632.660156 380.507812 652.773438 427.226562 L 717.746094 427.226562 C 697.632812 345.546875 615.953125 288 520.660156 288 C 397.832031 288 306.5625 383.601562 306.5625 512 C 306.5625 640.398438 397.832031 736 520.660156 736 Z M 520.660156 736 " />
</svg>