<svg xmlns="http://www.w3.org/2000/svg" width="1024px" height="1024px" viewBox="0 0 1024 1024">
  <path
    d="M 512 64 C 264.957031 64 64 264.957031 64 512 C 64 759.042969 264.957031 960 512 960 C 759.042969 960 960 759.042969 960 512 C 960 264.957031 759.042969 64 512 64 Z M 512 128 C 724.457031 128 896 299.542969 896 512 C 896 724.457031 724.457031 896 512 896 C 299.542969 896 128 724.457031 128 512 C 128 299.542969 299.542969 128 512 128 Z M 512 128 " />
  <path
    d="M 548.53125 320 C 494.527344 320 452.054688 343.742188 427.691406 383.890625 L 427.691406 327.859375 L 364.8125 327.859375 L 364.8125 768 L 429 768 L 429 609.300781 C 453.5625 648.140625 495.480469 671.066406 548.53125 671.066406 C 641.863281 671.066406 707.035156 599.671875 707.035156 495.53125 C 707.035156 391.390625 641.863281 320 548.53125 320 Z M 535.105469 613.425781 C 472.554688 613.425781 429 565.285156 429 495.53125 C 429 425.777344 472.554688 377.636719 535.105469 377.636719 C 597.328125 377.636719 640.230469 425.777344 640.230469 495.53125 C 640.230469 565.285156 597.328125 613.425781 535.105469 613.425781 Z M 535.105469 613.425781 " />
</svg>