<svg xmlns="http://www.w3.org/2000/svg" width="1024px" height="1024px" viewBox="0 0 1024 1024">
  <path style=" stroke:none;fill-rule:nonzero;fill:rgb(0%,0%,0%);fill-opacity:1;"
    d="M 773 480.875 C 756.148438 480.875 738.695312 489.191406 728.375 500.5 C 718.054688 511.808594 713.046875 524.253906 709.125 536.5 L 671 657 L 543.5 657 C 528.097656 657 512.171875 661.160156 498.25 672 C 484.328125 682.839844 474 702.042969 474 722.5 C 474 736.929688 480.027344 751.277344 487.25 760.375 C 494.472656 769.472656 501.617188 774.808594 507.375 779.5 L 507.875 779.878906 L 608.375 855.003906 L 567.375 985.128906 L 567.125 986.128906 C 556.46875 1029.558594 589.605469 1072.863281 630.5 1070.253906 C 643.378906 1069.433594 657.636719 1065.085938 669.25 1055.128906 L 773.375 977.753906 C 785.078125 986.230469 797.582031 995.339844 823 1013.378906 C 840.609375 1025.875 858.605469 1038.566406 873.25 1048.503906 C 880.574219 1053.472656 887.101562 1057.730469 892.5 1061.128906 C 897.898438 1064.523438 897.957031 1066.265625 909.375 1070.003906 C 931.441406 1077.226562 949.308594 1070.15625 964.375 1055.503906 C 979.441406 1040.847656 986.691406 1014.78125 980 989.628906 L 979.871094 988.878906 L 937.621094 855.003906 L 1045.246094 774.503906 L 1046.246094 773.628906 C 1067.296875 755.039062 1074.683594 730.484375 1073.246094 714.503906 C 1071.703125 696.851562 1063.757812 678.226562 1049.121094 668.003906 C 1034.488281 657.78125 1020.109375 657.253906 1009.246094 657.003906 L 875.121094 657.003906 L 836.746094 536.503906 L 836.246094 535.503906 C 831.96875 524.738281 827.722656 513.429688 818.125 502 C 808.527344 490.570312 790.414062 480.875 773 480.875 Z M 772.621094 550.375 C 774.335938 553.144531 775.457031 556.210938 776.871094 559.125 L 828.246094 721 L 1007.746094 721 C 1008.578125 721.019531 1007.324219 722.519531 1003.996094 725.496094 C 1003.804688 725.664062 1004.074219 725.445312 1003.871094 725.625 L 862.996094 830.875 L 916.246094 1000.125 C 913.78125 998.488281 912.066406 997.414062 909.246094 995.5 C 895.289062 986.03125 877.40625 973.609375 859.996094 961.25 C 825.167969 936.535156 791.871094 912.25 791.871094 912.25 L 772.871094 898.375 L 628.371094 1005.875 L 627.496094 1006.503906 C 627.382812 1007.316406 626.96875 1008.042969 629.246094 1001.375 L 683.121094 830.875 L 547.871094 729.875 L 547.617188 729.625 L 546.742188 728.996094 C 538.480469 722.152344 537.8125 720.996094 543.492188 720.996094 L 717.875 720.996094 L 770.125 556 L 770.125 555.875 C 771.203125 552.542969 773 548.585938 772.621094 550.375 Z M 538 722.375 C 538.007812 722.371094 538 722.527344 538 722.503906 C 538 720.164062 537.316406 722.738281 537.625 722.503906 C 537.644531 722.488281 537.960938 722.402344 538 722.375 Z M 538 722.375 " />
  <path
    d="M 512 896 C 533.226562 896 554.046875 894.277344 574.335938 890.964844 L 559.234375 957.542969 C 543.710938 959.167969 527.953125 960 512 960 C 264.578125 960 64 759.425781 64 512 C 64 264.578125 264.578125 64 512 64 C 759.425781 64 960 264.578125 960 512 C 960 555.1875 953.886719 596.949219 942.484375 636.46875 L 884.113281 631.546875 L 880.152344 621.535156 C 890.464844 586.824219 896 550.058594 896 512 C 896 299.921875 724.078125 128 512 128 C 299.921875 128 128 299.921875 128 512 C 128 724.078125 299.921875 896 512 896 Z M 512 896 " />
  <path
    d="M 530.941406 404.183594 C 552.703125 361.425781 592.230469 335.726562 644.203125 335.726562 C 710.789062 335.726562 758.136719 378.867188 766.628906 448.015625 C 740.921875 448.558594 717.976562 464.464844 708.488281 488.457031 L 704.082031 499.585938 L 704.082031 476.003906 C 704.082031 423.527344 676.839844 390.894531 628.730469 390.894531 C 577.261719 390.894531 543.621094 427.5625 543.621094 485.761719 L 543.621094 640.671875 L 506.621094 643.796875 C 497.199219 644.589844 488.28125 647.429688 480.378906 651.921875 L 480.378906 476.003906 C 480.378906 423.527344 452.792969 390.894531 405.023438 390.894531 C 352.882812 390.894531 319.917969 427.5625 319.917969 485.761719 L 319.917969 688.273438 L 256 688.273438 L 256 343.800781 L 317.5625 343.800781 L 317.5625 399.910156 C 338.015625 359.003906 374.34375 335.726562 422.855469 335.726562 C 473.953125 335.726562 512.234375 361.125 530.941406 404.183594 Z M 530.941406 404.183594 " />
</svg>