<svg xmlns="http://www.w3.org/2000/svg" width="1024px" height="1024px" viewBox="0 0 1024 1024">
  <path
    d="M 510.4375 736 C 478.117188 736 448.863281 730.847656 422.675781 720.539062 C 396.765625 710.226562 376.007812 695.878906 360.40625 677.492188 C 345.082031 658.828125 336.863281 637.789062 335.75 614.386719 L 403.871094 614.386719 C 404.984375 627.203125 410.277344 638.765625 419.75 649.074219 C 429.222656 659.105469 441.761719 667.046875 457.363281 672.894531 C 472.964844 678.746094 490.378906 681.671875 509.601562 681.671875 C 529.101562 681.671875 546.238281 678.46875 561.003906 672.058594 C 576.046875 665.652344 587.609375 656.734375 595.691406 645.3125 C 604.046875 633.890625 608.226562 620.933594 608.226562 606.449219 C 608.226562 590.847656 603.769531 577.75 594.855469 567.164062 C 586.21875 556.296875 574.097656 549.472656 558.496094 546.6875 L 455.273438 527.878906 C 422.398438 521.75 396.765625 508.519531 378.378906 488.179688 C 359.988281 467.5625 350.792969 441.511719 350.792969 410.03125 C 350.792969 387.460938 357.203125 366.984375 370.019531 348.597656 C 383.113281 329.929688 401.363281 315.164062 424.765625 304.296875 C 448.167969 293.433594 474.914062 288 505.003906 288 C 534.816406 288 561.699219 292.875 585.660156 302.628906 C 609.621094 312.378906 628.707031 325.890625 642.910156 343.164062 C 657.121094 360.4375 664.789062 379.660156 665.902344 400.835938 L 597.78125 400.835938 C 596.945312 389.691406 592.347656 379.660156 583.988281 370.746094 C 575.910156 361.832031 565.042969 354.867188 551.390625 349.851562 C 537.738281 344.835938 522.417969 342.328125 505.421875 342.328125 C 488.148438 342.328125 472.824219 345.253906 459.453125 351.105469 C 446.078125 356.957031 435.628906 365.035156 428.109375 375.34375 C 420.863281 385.375 417.242188 396.796875 417.242188 409.613281 C 417.242188 424.097656 421.28125 436.078125 429.363281 445.550781 C 437.441406 455.023438 449.28125 461.15625 464.882812 463.941406 L 570.617188 482.746094 C 592.347656 486.648438 611.015625 494.308594 626.617188 505.730469 C 642.496094 517.15625 654.476562 531.363281 662.554688 548.359375 C 670.910156 565.351562 675.089844 583.878906 675.089844 603.941406 C 675.089844 629.015625 667.847656 651.585938 653.363281 671.640625 C 639.152344 691.699219 619.511719 707.441406 594.4375 718.867188 C 569.363281 730.292969 541.363281 736 510.4375 736 Z M 510.4375 736 "/>
  <path
    d="M 512 64 C 264.57812 64 64 264.57812 64 512 C 64 759.42578 264.57812 960 512 960 C 759.42578 960 960 759.42578 960 512 C 960 264.57812 759.42578 64 512 64 z M 512 128 C 724.07812 128 896 299.92187 896 512 C 896 724.07812 724.07812 896 512 896 C 299.92187 896 128 724.07812 128 512 C 128 299.92187 299.92187 128 512 128 z " />
</svg>