<svg xmlns="http://www.w3.org/2000/svg" width="1024px" height="1024px" viewBox="0 0 1024 1024">
  <path
    d="M 256 128 C 185.640625 128 128 185.640625 128 256 L 128 768 C 128 838.359375 185.640625 896 256 896 L 768 896 C 838.359375 896 896 838.359375 896 768 L 896 256 C 896 185.640625 838.359375 128 768 128 Z M 256 192 L 768 192 C 804.007812 192 832 219.992188 832 256 L 832 768 C 832 804.007812 804.007812 832 768 832 L 256 832 C 219.992188 832 192 804.007812 192 768 L 192 256 C 192 219.992188 219.992188 192 256 192 Z M 256 192 " />
  <path
    d="M 333.171875 288 L 400.050781 288 L 628.210938 635.839844 L 628.210938 288 L 690.929688 288 L 690.929688 736 L 623.730469 736 L 395.890625 388.160156 L 395.890625 736 L 333.171875 736 Z M 333.171875 288 " />
</svg>