<svg xmlns="http://www.w3.org/2000/svg" width="1024px" height="1024px" viewBox="0 0 1024 1024">
  <path
    d="M 256 128 C 185.640625 128 128 185.640625 128 256 L 128 768 C 128 838.359375 185.640625 896 256 896 L 768 896 C 838.359375 896 896 838.359375 896 768 L 896 256 C 896 185.640625 838.359375 128 768 128 Z M 256 192 L 768 192 C 804.007812 192 832 219.992188 832 256 L 832 768 C 832 804.007812 804.007812 832 768 832 L 256 832 C 219.992188 832 192 804.007812 192 768 L 192 256 C 192 219.992188 219.992188 192 256 192 Z M 256 192 " />
  <path
    d="M 384 318.71875 L 545.265625 318.71875 C 571.320312 318.71875 594.160156 323.488281 613.792969 333.027344 C 633.605469 342.570312 648.832031 356.144531 659.476562 373.757812 C 670.296875 391.371094 675.710938 411.734375 675.710938 434.851562 C 675.710938 458.152344 670.207031 478.609375 659.199219 496.222656 C 648.378906 513.835938 632.964844 527.503906 612.964844 537.226562 C 592.96875 546.949219 569.667969 551.8125 543.066406 551.8125 L 446.746094 551.8125 L 446.746094 704 L 384 704 Z M 542.515625 497.597656 C 556.089844 497.597656 568.015625 495.121094 578.292969 490.167969 C 588.566406 485.03125 596.453125 477.785156 601.957031 468.425781 C 607.460938 458.886719 610.214844 447.789062 610.214844 435.128906 C 610.214844 422.46875 607.460938 411.460938 601.957031 402.105469 C 596.453125 392.746094 588.566406 385.59375 578.292969 380.640625 C 568.015625 375.5 556.089844 372.933594 542.515625 372.933594 L 446.746094 372.933594 L 446.746094 497.597656 Z M 542.515625 497.597656 " />
</svg>