<svg xmlns="http://www.w3.org/2000/svg" width="1024px" height="1024px" viewBox="0 0 1024 1024">
  <path
    d="M 512 64 C 264.957031 64 64 264.957031 64 512 C 64 759.042969 264.957031 960 512 960 C 759.042969 960 960 759.042969 960 512 C 960 264.957031 759.042969 64 512 64 Z M 512 128 C 724.457031 128 896 299.542969 896 512 C 896 724.457031 724.457031 896 512 896 C 299.542969 896 128 724.457031 128 512 C 128 299.542969 299.542969 128 512 128 Z M 512 128 " />
  <path
    d="M 483 729.601562 L 541.875 729.601562 L 692.628906 345.597656 L 626.625 345.597656 L 514.875 646.726562 L 399.375 345.597656 L 331.5 345.597656 Z M 483 729.601562 " />
</svg>