<svg xmlns="http://www.w3.org/2000/svg" width="1024px" height="1024px" viewBox="0 0 1024 1024">
  <path
    d="M 512 64 C 264.957031 64 64 264.957031 64 512 C 64 759.042969 264.957031 960 512 960 C 759.042969 960 960 759.042969 960 512 C 960 264.957031 759.042969 64 512 64 Z M 512 128 C 724.457031 128 896 299.542969 896 512 C 896 724.457031 724.457031 896 512 896 C 299.542969 896 128 724.457031 128 512 C 128 299.542969 299.542969 128 512 128 Z M 512 128 " />
  <path
    d="M 520.507812 736 C 615.183594 736 696.550781 679.070312 717.28125 597.703125 L 654.164062 597.703125 C 633.746094 644.730469 583.625 678.765625 520.507812 678.765625 C 433.878906 678.765625 371.382812 609.148438 371.382812 512 C 371.382812 414.851562 433.878906 345.238281 520.507812 345.238281 C 583.625 345.238281 633.746094 379.269531 654.164062 426.296875 L 717.28125 426.296875 C 696.550781 344.929688 615.183594 288 520.507812 288 C 397.988281 288 306.71875 383.601562 306.71875 512 C 306.71875 640.398438 397.988281 736 520.507812 736 Z M 520.507812 736 " />
</svg>