<svg xmlns="http://www.w3.org/2000/svg" width="1024px" height="1024px" viewBox="0 0 1024 1024">
  <path
    d="M 255.203125 625.761719 C 255.84375 601.121094 247.683594 581.441406 230.722656 566.71875 C 213.761719 552 190.882812 544.640625 162.082031 544.640625 L 128 544.640625 L 128 475.519531 L 162.082031 475.519531 C 190.882812 475.519531 213.761719 468.160156 230.722656 453.441406 C 247.683594 438.71875 255.84375 419.039062 255.203125 394.402344 L 253.28125 293.121094 C 252.644531 259.839844 259.523438 230.71875 273.921875 205.761719 C 288.644531 180.800781 309.601562 161.601562 336.804688 148.160156 C 364.003906 134.71875 396.003906 128 432.804688 128 L 480 128 L 480 192.320312 L 433.28125 192.320312 C 400.003906 192.320312 373.601562 201.601562 354.082031 220.160156 C 334.882812 238.398438 325.441406 263.199219 325.761719 294.558594 L 327.683594 394.878906 C 328.324219 427.519531 319.523438 454.242188 301.28125 475.039062 C 283.042969 495.519531 258.402344 506.878906 227.363281 509.121094 C 258.402344 514.878906 283.042969 528.320312 301.28125 549.441406 C 319.523438 570.242188 328.324219 595.519531 327.683594 625.28125 L 325.761719 739.039062 C 325.125 767.199219 333.601562 789.601562 351.203125 806.238281 C 369.125 823.199219 393.28125 831.679688 423.683594 831.679688 L 480 831.679688 L 480 896 L 423.203125 896 C 388.964844 896 358.882812 889.601562 332.964844 876.800781 C 307.363281 864.320312 287.523438 846.238281 273.441406 822.558594 C 259.683594 799.199219 252.964844 771.839844 253.28125 740.480469 Z M 255.203125 625.761719 " />
  <path
    d="M 768.929688 625.761719 C 768.289062 601.121094 776.449219 581.441406 793.40625 566.71875 C 810.367188 552 833.246094 544.640625 862.046875 544.640625 L 896 544.640625 L 896 475.519531 L 862.046875 475.519531 C 833.246094 475.519531 810.367188 468.160156 793.40625 453.441406 C 776.449219 438.71875 768.289062 419.039062 768.929688 394.402344 L 770.847656 293.121094 C 771.488281 259.839844 764.449219 230.71875 749.726562 205.761719 C 735.328125 180.800781 714.527344 161.601562 687.328125 148.160156 C 660.128906 134.71875 628.132812 128 591.332031 128 L 544 128 L 544 192.320312 L 590.851562 192.320312 C 624.132812 192.320312 650.367188 201.601562 669.566406 220.160156 C 689.089844 238.398438 698.6875 263.199219 698.367188 294.558594 L 696.449219 394.878906 C 695.808594 427.519531 704.609375 454.242188 722.847656 475.039062 C 741.089844 495.519531 765.726562 506.878906 796.769531 509.121094 C 765.726562 514.878906 741.089844 528.320312 722.847656 549.441406 C 704.609375 570.242188 695.808594 595.519531 696.449219 625.28125 L 698.367188 739.039062 C 699.007812 767.199219 690.367188 789.601562 672.449219 806.238281 C 654.847656 823.199219 630.851562 831.679688 600.453125 831.679688 L 544 831.679688 L 544 896 L 600.929688 896 C 635.171875 896 665.089844 889.601562 690.6875 876.800781 C 716.609375 864.320312 736.449219 846.238281 750.207031 822.558594 C 764.289062 799.199219 771.167969 771.839844 770.847656 740.480469 Z M 768.929688 625.761719 " />
</svg>