<svg xmlns="http://www.w3.org/2000/svg" width="1024px" height="1024px" viewBox="0 0 1024 1024">
  <path
    d="M 512.01172 0.015625 C 479.25342 0.015625 446.49609 12.513672 421.50391 37.507812 L 37.523438 421.48828 C -12.464844 471.47266 -12.464845 552.51953 37.523438 602.50781 L 421.50391 986.48828 C 471.48828 1036.4727 552.53516 1036.4727 602.52344 986.48828 L 986.50391 602.50781 C 1036.4883 552.51953 1036.4883 471.47266 986.50391 421.48828 L 602.52344 37.507812 C 577.5293 12.513672 544.77002 0.015625 512.01172 0.015625 z M 512.01172 64.015625 C 528.39062 64.015625 544.76954 70.263672 557.26562 82.761719 L 941.24609 466.74219 C 966.23828 491.73437 966.23828 532.25781 941.24609 557.25 L 557.26562 941.23047 C 532.27345 966.22656 491.75 966.22656 466.75781 941.23047 L 82.777344 557.25 C 57.78125 532.25781 57.78125 491.73437 82.777344 466.74219 L 466.75781 82.761719 C 479.25391 70.263672 495.63281 64.015625 512.01172 64.015625 z " />
  <path
    d="M 520.503906 736 C 615.796875 736 697.476562 678.453125 717.585938 596.773438 L 652.613281 596.773438 C 632.503906 643.496094 582.695312 676.910156 520.503906 676.910156 C 434.804688 676.910156 372.925781 608.222656 372.925781 512 C 372.925781 415.777344 434.804688 347.09375 520.503906 347.09375 C 582.695312 347.09375 632.503906 380.507812 652.613281 427.226562 L 717.585938 427.226562 C 697.476562 345.546875 615.796875 288 520.503906 288 C 397.675781 288 306.40625 383.601562 306.40625 512 C 306.40625 640.398438 397.675781 736 520.503906 736 Z M 520.503906 736 "/>
</svg>