<svg xmlns="http://www.w3.org/2000/svg" width="1024px" height="1024px" viewBox="0 0 1024 1024">
  <path
    d="M 512 64 C 264.957031 64 64 264.957031 64 512 C 64 759.042969 264.957031 960 512 960 C 759.042969 960 960 759.042969 960 512 C 960 264.957031 759.042969 64 512 64 Z M 512 128 C 724.457031 128 896 299.542969 896 512 C 896 724.457031 724.457031 896 512 896 C 299.542969 896 128 724.457031 128 512 C 128 299.542969 299.542969 128 512 128 Z M 512 128 " />
  <path
    d="M 511.476562 704 C 398.6875 704 320 617.546875 320 513.058594 L 320 512 C 320 407.511719 399.738281 320 512.523438 320 C 625.3125 320 704 406.453125 704 510.941406 L 704 512 C 704 616.488281 624.261719 704 511.476562 704 Z M 512.523438 643.53125 C 585.441406 643.53125 636.328125 585.195312 636.328125 513.058594 L 636.328125 512 C 636.328125 439.867188 584.394531 380.464844 511.476562 380.464844 C 438.558594 380.464844 387.671875 438.804688 387.671875 510.941406 L 387.671875 512 C 387.671875 584.132812 439.605469 643.53125 512.523438 643.53125 Z M 512.523438 643.53125 " />
</svg>