<svg xmlns="http://www.w3.org/2000/svg" width="1024px" height="1024px" viewBox="0 0 1024 1024">
  <path
    d="M 512 64 C 264.957031 64 64 264.957031 64 512 C 64 759.042969 264.957031 960 512 960 C 759.042969 960 960 759.042969 960 512 C 960 264.957031 759.042969 64 512 64 Z M 512 128 C 724.457031 128 896 299.542969 896 512 C 896 724.457031 724.457031 896 512 896 C 299.542969 896 128 724.457031 128 512 C 128 299.542969 299.542969 128 512 128 Z M 512 128 " />
  <path
    d="M 644.203125 335.726562 C 592.230469 335.726562 552.703125 361.425781 530.941406 404.183594 C 512.234375 361.125 473.953125 335.726562 422.855469 335.726562 C 374.34375 335.726562 338.015625 359.003906 317.5625 399.910156 L 317.5625 343.800781 L 256 343.800781 L 256 688.273438 L 319.917969 688.273438 L 319.917969 485.761719 C 319.917969 427.5625 352.882812 390.894531 405.023438 390.894531 C 452.792969 390.894531 480.378906 423.527344 480.378906 476.003906 L 480.378906 688.273438 L 543.621094 688.273438 L 543.621094 485.761719 C 543.621094 427.5625 577.261719 390.894531 628.730469 390.894531 C 676.839844 390.894531 704.082031 423.527344 704.082031 476.003906 L 704.082031 688.273438 L 768 688.273438 L 768 470.960938 C 768 388.542969 717.875 335.726562 644.203125 335.726562 Z M 644.203125 335.726562 " />
</svg>