<svg xmlns="http://www.w3.org/2000/svg" width="1024px" height="1024px" viewBox="0 0 1024 1024">
  <path
    d="M 512 64 C 264.957031 64 64 264.957031 64 512 C 64 759.042969 264.957031 960 512 960 C 759.042969 960 960 759.042969 960 512 C 960 264.957031 759.042969 64 512 64 Z M 512 128 C 724.457031 128 896 299.542969 896 512 C 896 724.457031 724.457031 896 512 896 C 299.542969 896 128 724.457031 128 512 C 128 299.542969 299.542969 128 512 128 Z M 512 128 " />
  <path
    d="M 464.464844 768 L 529.5625 768 L 529.5625 468.953125 L 629.035156 468.953125 L 629.035156 411.539062 L 529.5625 411.539062 L 529.5625 350.71875 C 529.5625 327.679688 545.289062 311.953125 567.960938 311.953125 L 632.328125 311.953125 L 632.328125 256 L 561.746094 256 C 503.960938 256 464.464844 292.570312 464.464844 345.964844 L 464.464844 411.539062 L 391.6875 411.539062 L 391.6875 468.953125 L 464.464844 468.953125 Z M 464.464844 768 " />
</svg>