<svg xmlns="http://www.w3.org/2000/svg" width="1024px" height="1024px" viewBox="0 0 1024 1024">
  <path
    d="M 256 128 C 185.640625 128 128 185.640625 128 256 L 128 768 C 128 838.359375 185.640625 896 256 896 L 768 896 C 838.359375 896 896 838.359375 896 768 L 896 256 C 896 185.640625 838.359375 128 768 128 Z M 256 192 L 768 192 C 804.007812 192 832 219.992188 832 256 L 832 768 C 832 804.007812 804.007812 832 768 832 L 256 832 C 219.992188 832 192 804.007812 192 768 L 192 256 C 192 219.992188 219.992188 192 256 192 Z M 256 192 " />
  <path
    d="M 502.40625 750.078125 C 477.445312 750.078125 454.511719 746.132812 433.605469 738.238281 C 412.699219 730.558594 395.417969 719.570312 381.765625 705.28125 C 368.113281 691.199219 359.578125 674.878906 356.164062 656.320312 L 417.925781 656.320312 C 422.191406 665.28125 428.484375 672.851562 436.804688 679.039062 C 445.125 685.230469 454.832031 689.921875 465.925781 693.121094 C 477.019531 696.320312 488.539062 697.921875 500.484375 697.921875 C 519.683594 697.921875 536.433594 693.972656 550.726562 686.078125 C 565.230469 678.398438 576.324219 667.519531 584.003906 653.441406 C 591.898438 639.574219 595.84375 623.46875 595.84375 605.121094 L 595.84375 591.359375 L 598.40625 497.921875 L 624.964844 467.839844 C 624.539062 496.640625 618.351562 522.242188 606.40625 544.640625 C 594.457031 566.828125 578.03125 584.109375 557.125 596.480469 C 536.433594 608.855469 512.964844 615.039062 486.726562 615.039062 C 459.417969 615.039062 434.566406 608.425781 412.164062 595.199219 C 389.976562 581.761719 372.589844 563.308594 360.003906 539.839844 C 347.417969 516.375 341.125 489.8125 341.125 460.160156 C 341.125 430.71875 347.417969 404.160156 360.003906 380.480469 C 372.589844 356.800781 389.976562 338.242188 412.164062 324.800781 C 434.566406 311.359375 459.417969 304.640625 486.726562 304.640625 C 512.964844 304.640625 536.433594 310.933594 557.125 323.519531 C 578.03125 336.109375 594.457031 353.707031 606.40625 376.320312 C 618.351562 398.71875 624.539062 424.425781 624.964844 453.441406 L 598.40625 426.5625 L 598.40625 312.320312 L 659.527344 312.320312 L 658.566406 605.121094 C 658.566406 633.492188 652.058594 658.667969 639.046875 680.640625 C 626.03125 702.828125 607.683594 719.890625 584.003906 731.839844 C 560.324219 744 533.125 750.078125 502.40625 750.078125 Z M 501.125 561.28125 C 519.046875 561.28125 535.152344 556.90625 549.445312 548.160156 C 563.953125 539.414062 575.363281 527.359375 583.683594 512 C 592.21875 496.425781 596.484375 479.148438 596.484375 460.160156 C 596.484375 440.960938 592.21875 423.679688 583.683594 408.320312 C 575.363281 392.960938 563.953125 380.90625 549.445312 372.160156 C 535.152344 363.199219 519.046875 358.71875 501.125 358.71875 C 482.992188 358.71875 466.671875 363.199219 452.164062 372.160156 C 437.660156 380.90625 426.351562 392.960938 418.246094 408.320312 C 410.136719 423.679688 406.085938 440.960938 406.085938 460.160156 C 406.085938 479.148438 410.136719 496.425781 418.246094 512 C 426.351562 527.359375 437.660156 539.414062 452.164062 548.160156 C 466.671875 556.90625 482.992188 561.28125 501.125 561.28125 Z M 501.125 561.28125 " />
</svg>