<svg xmlns="http://www.w3.org/2000/svg" width="1024px" height="1024px" viewBox="0 0 1024 1024">
  <path
    d="M 102.375 64 C 84.703125 64 70.375 78.328125 70.375 96 L 70.375 300.75 C 70.375 318.421875 84.703125 332.75 102.375 332.75 L 230.375 332.75 L 289.125 307.25 L 347.125 307.25 L 402.375 351.375 C 408.054688 355.910156 415.105469 358.378906 422.375 358.375 L 563.125 358.375 C 570.0625 358.394531 576.820312 356.15625 582.375 352 L 675.125 282.5 C 744.925781 282.386719 784.414062 282.191406 903.25 365.375 C 914.46875 373.203125 929.417969 373.039062 940.460938 364.960938 C 951.5 356.886719 956.1875 342.6875 952.125 329.625 C 911.878906 202.183594 848.261719 132.636719 782.875 98.125 C 717.488281 63.613281 652.777344 64 614.375 64 L 422.375 64 L 352.25 89.625 L 289.125 89.625 L 244.625 67.375 Z M 134.375 128 L 222.875 128 L 267.25 150.25 L 358.375 153.625 L 428.5 128 L 614.375 128 C 652.777344 128 703.1875 128.460938 753 154.75 C 787.105469 172.75 820.230469 212.160156 850.625 266.5 C 778.589844 231.652344 720.667969 217.625 665.625 217.625 C 658.6875 217.605469 651.929688 219.84375 646.375 224 L 552.5 294.375 L 433.625 294.375 L 378.375 250.25 C 372.695312 245.714844 365.644531 243.246094 358.375 243.25 L 281.625 243.25 L 222.875 268.75 L 134.375 268.75 Z M 134.375 128 " />
  <path
    d="M 422.375 288 C 404.703125 288 390.375 302.328125 390.375 320 L 390.375 441.375 L 380.5 464.625 C 361.71875 508.441406 352 555.582031 352 603.25 L 352 928 C 352 945.671875 366.328125 960 384 960 L 601.625 960 C 619.296875 960 633.625 945.671875 633.625 928 L 633.625 603.25 C 633.625 555.578125 623.902344 508.4375 605.125 464.625 L 595.25 441.375 L 595.25 320 C 595.25 302.328125 580.921875 288 563.25 288 Z M 454.375 352 L 531.25 352 L 531.25 448 L 546.375 489.875 C 561.738281 525.726562 569.625 564.25 569.625 603.25 L 569.625 896 L 416 896 L 416 603.25 C 416 564.246094 423.882812 525.722656 439.25 489.875 L 451.875 460.625 Z M 454.375 352 " />
</svg>